<svg xmlns="http://www.w3.org/2000/svg" xmlns:xlink="http://www.w3.org/1999/xlink" width="1920" zoomAndPan="magnify" viewBox="0 0 1440 1439.999935" height="1920" preserveAspectRatio="xMidYMid meet" version="1.0"><defs><clipPath id="8af1a9bfab"><path d="M 371 645 L 516 645 L 516 952 L 371 952 Z M 371 645 " clip-rule="nonzero"/></clipPath><clipPath id="66368880a0"><path d="M 422.058594 951.699219 L 371.050781 659.113281 L 470.796875 641.722656 L 521.804688 934.308594 Z M 422.058594 951.699219 " clip-rule="nonzero"/></clipPath><clipPath id="e5f0d5e33d"><path d="M 422.058594 951.699219 L 371.542969 661.9375 L 465.269531 645.597656 L 515.785156 935.359375 Z M 422.058594 951.699219 " clip-rule="nonzero"/></clipPath><clipPath id="198046fe49"><path d="M 189 645 L 479 645 L 479 786 L 189 786 Z M 189 645 " clip-rule="nonzero"/></clipPath><clipPath id="0675ce1a60"><path d="M 189.503906 692.113281 L 469.023438 644.773438 L 484.800781 737.949219 L 205.28125 785.285156 Z M 189.503906 692.113281 " clip-rule="nonzero"/></clipPath><clipPath id="5a96b20fa4"><path d="M 189.503906 692.113281 L 463.550781 645.703125 L 479.296875 738.679688 L 205.246094 785.089844 Z M 189.503906 692.113281 " clip-rule="nonzero"/></clipPath><clipPath id="72c9b4fbdd"><path d="M 160 422 L 488 422 L 488 750 L 160 750 Z M 160 422 " clip-rule="nonzero"/></clipPath><clipPath id="024ed76872"><path d="M 160.65625 716.945312 L 456.582031 421.023438 L 489.992188 454.433594 L 194.066406 750.355469 Z M 160.65625 716.945312 " clip-rule="nonzero"/></clipPath><clipPath id="6d521dd274"><path d="M 160.65625 716.945312 L 454.882812 422.722656 L 487.371094 455.210938 L 193.148438 749.433594 Z M 160.65625 716.945312 " clip-rule="nonzero"/></clipPath><clipPath id="87879e1e43"><path d="M 454.253906 422.726562 L 644 422.726562 L 644 517.027344 L 454.253906 517.027344 Z M 454.253906 422.726562 " clip-rule="nonzero"/></clipPath><clipPath id="30de3c5102"><path d="M 578 154 L 941 154 L 941 517 L 578 517 Z M 578 154 " clip-rule="nonzero"/></clipPath><clipPath id="a499659219"><path d="M 578.167969 450.144531 L 878.863281 149.445312 L 950.457031 221.042969 L 649.761719 521.738281 Z M 578.167969 450.144531 " clip-rule="nonzero"/></clipPath><clipPath id="70818ff154"><path d="M 578.167969 450.144531 L 875.472656 152.835938 L 942.351562 219.71875 L 645.046875 517.023438 Z M 578.167969 450.144531 " clip-rule="nonzero"/></clipPath><clipPath id="bd501851e8"><path d="M 875.195312 153.789062 L 1294 153.789062 L 1294 248.089844 L 875.195312 248.089844 Z M 875.195312 153.789062 " clip-rule="nonzero"/></clipPath><clipPath id="2c60bb148a"><path d="M 501 937 L 809 937 L 809 1084 L 501 1084 Z M 501 937 " clip-rule="nonzero"/></clipPath><clipPath id="63ab0cfd09"><path d="M 791.472656 1083.042969 L 499.238281 1030.054688 L 517.300781 930.429688 L 809.535156 983.417969 Z M 791.472656 1083.042969 " clip-rule="nonzero"/></clipPath><clipPath id="69cc2d6aba"><path d="M 791.472656 1083.042969 L 501.148438 1030.402344 L 518.328125 935.652344 L 808.652344 988.292969 Z M 791.472656 1083.042969 " clip-rule="nonzero"/></clipPath><clipPath id="fde2c51d41"><path d="M 665 972 L 809 972 L 809 1262 L 665 1262 Z M 665 972 " clip-rule="nonzero"/></clipPath><clipPath id="b77f17be18"><path d="M 665.65625 1244.941406 L 716.625 966.058594 L 816.226562 984.261719 L 765.253906 1263.144531 Z M 665.65625 1244.941406 " clip-rule="nonzero"/></clipPath><clipPath id="8114e50fb6"><path d="M 665.65625 1244.941406 L 715.585938 971.738281 L 808.976562 988.804688 L 759.042969 1262.007812 Z M 665.65625 1244.941406 " clip-rule="nonzero"/></clipPath><clipPath id="d5b32adc62"><path d="M 742 959 L 1027 959 L 1027 1246 L 742 1246 Z M 742 959 " clip-rule="nonzero"/></clipPath><clipPath id="733ef8deda"><path d="M 993.542969 959.777344 L 1031.726562 997.960938 L 778.761719 1250.929688 L 740.578125 1212.746094 Z M 993.542969 959.777344 " clip-rule="nonzero"/></clipPath><clipPath id="b0e6332c00"><path d="M 993.542969 959.777344 L 1027.488281 993.722656 L 776.027344 1245.183594 L 742.082031 1211.238281 Z M 993.542969 959.777344 " clip-rule="nonzero"/></clipPath><clipPath id="03378cf50b"><path d="M 932.433594 803.730469 L 1026.734375 803.730469 L 1026.734375 993 L 932.433594 993 Z M 932.433594 803.730469 " clip-rule="nonzero"/></clipPath><clipPath id="2ef52e479f"><path d="M 931 507 L 1297 507 L 1297 873 L 931 873 Z M 931 507 " clip-rule="nonzero"/></clipPath><clipPath id="dd2bb24cdf"><path d="M 1229.992188 507.007812 L 1301.589844 578.605469 L 1000.890625 879.300781 L 929.296875 807.707031 Z M 1229.992188 507.007812 " clip-rule="nonzero"/></clipPath><clipPath id="a4076e27e8"><path d="M 1229.992188 507.007812 L 1297.34375 574.363281 L 998.84375 872.863281 L 931.492188 805.511719 Z M 1229.992188 507.007812 " clip-rule="nonzero"/></clipPath><clipPath id="b62ccdaa72"><path d="M 1200.894531 152.839844 L 1296 152.839844 L 1296 572 L 1200.894531 572 Z M 1200.894531 152.839844 " clip-rule="nonzero"/></clipPath><clipPath id="8809c3def0"><path d="M 64 430 L 580 430 L 580 812 L 64 812 Z M 64 430 " clip-rule="nonzero"/></clipPath><clipPath id="bf85f626e7"><path d="M 64.675781 811.671875 L 513.351562 362.992188 L 586.109375 435.75 L 137.433594 884.429688 Z M 64.675781 811.671875 " clip-rule="nonzero"/></clipPath><clipPath id="55b3c2b4cd"><path d="M 415.339844 461.003906 L 64.675781 811.671875 L 228.445312 781.417969 L 579.109375 430.753906 L 415.339844 461.003906 " clip-rule="nonzero"/></clipPath><clipPath id="69956efe9b"><path d="M 637 871 L 1020 871 L 1020 1385 L 637 1385 Z M 637 871 " clip-rule="nonzero"/></clipPath><clipPath id="7f382ca630"><path d="M 572.257812 1319.253906 L 1020.933594 870.574219 L 1087.628906 937.269531 L 638.953125 1385.949219 Z M 572.257812 1319.253906 " clip-rule="nonzero"/></clipPath><clipPath id="d03d6604f2"><path d="M 669.265625 1222.242188 L 1019.933594 871.578125 L 987.675781 1033.34375 L 637.011719 1384.007812 L 669.265625 1222.242188 " clip-rule="nonzero"/></clipPath><clipPath id="a966374fde"><path d="M 838 413 L 1037 413 L 1037 611 L 838 611 Z M 838 413 " clip-rule="nonzero"/></clipPath><clipPath id="fc6524576f"><path d="M 947.550781 377.003906 L 1072.355469 501.808594 L 927.128906 647.035156 L 802.324219 522.230469 Z M 947.550781 377.003906 " clip-rule="nonzero"/></clipPath><clipPath id="4fd407c797"><path d="M 1009.953125 439.40625 L 1036.050781 538.113281 L 963.4375 610.726562 L 864.726562 584.632812 L 838.628906 485.921875 L 911.246094 413.308594 L 1009.953125 439.40625 " clip-rule="nonzero"/></clipPath><clipPath id="c5709390ee"><path d="M 417 916 L 536 916 L 536 1036 L 417 1036 Z M 417 916 " clip-rule="nonzero"/></clipPath><clipPath id="185dfc54cb"><path d="M 457.652344 876.210938 L 578.566406 997.125 L 495.078125 1080.609375 L 374.167969 959.699219 Z M 457.652344 876.210938 " clip-rule="nonzero"/></clipPath><clipPath id="a42fb1f16d"><path d="M 517.042969 935.601562 L 535.78125 1035.644531 L 435.734375 1016.910156 L 417 916.863281 L 517.042969 935.601562 " clip-rule="nonzero"/></clipPath><clipPath id="da213fa3c0"><path d="M 469 928 L 523 928 L 523 946 L 469 946 Z M 469 928 " clip-rule="nonzero"/></clipPath><clipPath id="193ed8ceb9"><path d="M 469.890625 936.644531 L 472.921875 919.765625 L 532 930.386719 L 528.964844 947.265625 Z M 469.890625 936.644531 " clip-rule="nonzero"/></clipPath><clipPath id="6f3d5ac31a"><path d="M 469.890625 936.644531 L 471.921875 925.339844 L 523.523438 934.617188 L 521.492188 945.921875 Z M 469.890625 936.644531 " clip-rule="nonzero"/></clipPath><clipPath id="7d5d84de53"><path d="M 503 907 L 522 907 L 522 960 L 503 960 Z M 503 907 " clip-rule="nonzero"/></clipPath><clipPath id="3d27ea55b8"><path d="M 521.492188 958.449219 L 504.625 961.546875 L 493.773438 902.515625 L 510.640625 899.414062 Z M 521.492188 958.449219 " clip-rule="nonzero"/></clipPath><clipPath id="705663735d"><path d="M 521.492188 958.449219 L 510.195312 960.523438 L 500.714844 908.957031 L 512.011719 906.882812 Z M 521.492188 958.449219 " clip-rule="nonzero"/></clipPath></defs><g clip-path="url(#8af1a9bfab)"><g clip-path="url(#66368880a0)"><g clip-path="url(#e5f0d5e33d)"><path fill="#9061FF" d="M 422.058594 951.699219 L 371.050781 659.113281 L 464.148438 642.882812 L 515.15625 935.46875 Z M 422.058594 951.699219 " fill-opacity="1" fill-rule="nonzero"/></g></g></g><g clip-path="url(#198046fe49)"><g clip-path="url(#0675ce1a60)"><g clip-path="url(#5a96b20fa4)"><path fill="#9061FF" d="M 189.503906 692.113281 L 462.367188 645.902344 L 478.144531 739.074219 L 205.28125 785.285156 Z M 189.503906 692.113281 " fill-opacity="1" fill-rule="nonzero"/></g></g></g><g clip-path="url(#72c9b4fbdd)"><g clip-path="url(#024ed76872)"><g clip-path="url(#6d521dd274)"><path fill="#9061FF" d="M 160.65625 716.945312 L 456.582031 421.023438 L 489.992188 454.433594 L 194.066406 750.355469 Z M 160.65625 716.945312 " fill-opacity="1" fill-rule="nonzero"/></g></g></g><g clip-path="url(#87879e1e43)"><path fill="#9061FF" d="M 454.253906 422.726562 L 643.253906 422.726562 L 643.253906 517.226562 L 454.253906 517.226562 Z M 454.253906 422.726562 " fill-opacity="1" fill-rule="nonzero"/></g><g clip-path="url(#30de3c5102)"><g clip-path="url(#a499659219)"><g clip-path="url(#70818ff154)"><path fill="#9061FF" d="M 578.167969 450.144531 L 874.089844 154.21875 L 940.910156 221.042969 L 644.988281 516.964844 Z M 578.167969 450.144531 " fill-opacity="1" fill-rule="nonzero"/></g></g></g><g clip-path="url(#bd501851e8)"><path fill="#9061FF" d="M 875.195312 153.789062 L 1293.695312 153.789062 L 1293.695312 248.289062 L 875.195312 248.289062 Z M 875.195312 153.789062 " fill-opacity="1" fill-rule="nonzero"/></g><g clip-path="url(#2c60bb148a)"><g clip-path="url(#63ab0cfd09)"><g clip-path="url(#69cc2d6aba)"><path fill="#9061FF" d="M 791.472656 1083.042969 L 499.238281 1030.054688 L 516.097656 937.070312 L 808.332031 990.058594 Z M 791.472656 1083.042969 " fill-opacity="1" fill-rule="nonzero"/></g></g></g><g clip-path="url(#fde2c51d41)"><g clip-path="url(#b77f17be18)"><g clip-path="url(#8114e50fb6)"><path fill="#9061FF" d="M 665.65625 1244.941406 L 715.410156 972.699219 L 808.371094 989.691406 L 758.613281 1261.929688 Z M 665.65625 1244.941406 " fill-opacity="1" fill-rule="nonzero"/></g></g></g><g clip-path="url(#d5b32adc62)"><g clip-path="url(#733ef8deda)"><g clip-path="url(#b0e6332c00)"><path fill="#9061FF" d="M 993.542969 959.777344 L 1026.953125 993.1875 L 773.988281 1246.15625 L 740.578125 1212.746094 Z M 993.542969 959.777344 " fill-opacity="1" fill-rule="nonzero"/></g></g></g><g clip-path="url(#03378cf50b)"><path fill="#9061FF" d="M 1026.734375 803.730469 L 1026.734375 992.730469 L 932.234375 992.730469 L 932.234375 803.730469 Z M 1026.734375 803.730469 " fill-opacity="1" fill-rule="nonzero"/></g><g clip-path="url(#2ef52e479f)"><g clip-path="url(#dd2bb24cdf)"><g clip-path="url(#a4076e27e8)"><path fill="#9061FF" d="M 1229.992188 507.007812 L 1296.816406 573.832031 L 996.117188 874.527344 L 929.296875 807.707031 Z M 1229.992188 507.007812 " fill-opacity="1" fill-rule="nonzero"/></g></g></g><g clip-path="url(#b62ccdaa72)"><path fill="#9061FF" d="M 1200.894531 152.839844 L 1295.394531 152.839844 L 1295.394531 571.339844 L 1200.894531 571.339844 Z M 1200.894531 152.839844 " fill-opacity="1" fill-rule="nonzero"/></g><g clip-path="url(#8809c3def0)"><g clip-path="url(#bf85f626e7)"><g clip-path="url(#55b3c2b4cd)"><path fill="#9061FF" d="M 64.675781 811.671875 L 513.351562 362.992188 L 580.046875 429.6875 L 131.371094 878.367188 Z M 64.675781 811.671875 " fill-opacity="1" fill-rule="nonzero"/></g></g></g><g clip-path="url(#69956efe9b)"><g clip-path="url(#7f382ca630)"><g clip-path="url(#d03d6604f2)"><path fill="#9061FF" d="M 572.257812 1319.253906 L 1020.933594 870.574219 L 1087.628906 937.269531 L 638.953125 1385.949219 Z M 572.257812 1319.253906 " fill-opacity="1" fill-rule="nonzero"/></g></g></g><g clip-path="url(#a966374fde)"><g clip-path="url(#fc6524576f)"><g clip-path="url(#4fd407c797)"><path fill="#9061FF" d="M 947.550781 377.003906 L 1072.355469 501.808594 L 927.128906 647.035156 L 802.324219 522.230469 Z M 947.550781 377.003906 " fill-opacity="1" fill-rule="nonzero"/></g></g></g><g clip-path="url(#c5709390ee)"><g clip-path="url(#185dfc54cb)"><g clip-path="url(#a42fb1f16d)"><path fill="#9061FF" d="M 457.652344 876.210938 L 575.6875 994.246094 L 495.078125 1074.851562 L 377.046875 956.820312 Z M 457.652344 876.210938 " fill-opacity="1" fill-rule="nonzero"/></g></g></g><g clip-path="url(#da213fa3c0)"><g clip-path="url(#193ed8ceb9)"><g clip-path="url(#6f3d5ac31a)"><path fill="#9061FF" d="M 469.890625 936.644531 L 471.40625 928.207031 L 522.042969 937.308594 L 520.523438 945.75 Z M 469.890625 936.644531 " fill-opacity="1" fill-rule="nonzero"/></g></g></g><g clip-path="url(#7d5d84de53)"><g clip-path="url(#3d27ea55b8)"><g clip-path="url(#705663735d)"><path fill="#9061FF" d="M 521.492188 958.449219 L 513.058594 960 L 503.757812 909.398438 L 512.191406 907.847656 Z M 521.492188 958.449219 " fill-opacity="1" fill-rule="nonzero"/></g></g></g></svg>